<?xml version="1.0" encoding="UTF-8"?>
<svg id="Ebene_2" data-name="Ebene 2" xmlns="http://www.w3.org/2000/svg" viewBox="0 0 1645.398 1645.398">
  <defs>
    <style>
      .cls-1 {
        fill: #efe1bb;
      }

      .cls-2 {
        fill: #1c1c1c;
      }

      .cls-3 {
        fill: #a37b61;
      }
    </style>
  </defs>
  <g id="Ebene_1-2" data-name="Ebene 1">
    <rect class="cls-1" width="1645.398" height="1645.398"/>
    <g>
      <rect class="cls-3" x="385.026" y="383.989" width="875.345" height="875.345"/>
      <g>
        <polygon class="cls-2" points="822.699 383.989 968.59 383.989 1114.48 383.989 1114.48 238.097 968.59 238.097 822.699 238.097 676.808 238.097 530.917 238.097 530.917 383.989 676.808 383.989 822.699 383.989"/>
        <rect class="cls-2" x="385.026" y="383.989" width="145.891" height="145.891"/>
        <rect class="cls-2" x="968.59" y="529.88" width="145.891" height="145.891"/>
        <rect class="cls-2" x="676.808" y="675.77" width="145.891" height="145.891"/>
        <rect class="cls-2" x="1114.48" y="383.989" width="145.891" height="145.891"/>
        <polygon class="cls-2" points="385.026 967.552 385.026 821.661 385.026 675.77 385.026 529.88 239.135 529.88 239.135 675.77 239.135 821.661 239.135 967.552 239.135 1113.443 385.026 1113.443 385.026 967.552"/>
        <polygon class="cls-2" points="1260.372 529.879 1260.372 675.77 1260.372 821.661 1260.372 967.552 1260.372 1113.443 1406.262 1113.443 1406.262 967.552 1406.262 821.661 1406.262 675.77 1406.263 529.879 1260.372 529.879"/>
        <rect class="cls-2" x="1114.481" y="1113.443" width="145.891" height="145.891"/>
        <rect class="cls-2" x="385.026" y="1113.443" width="145.891" height="145.891"/>
        <polygon class="cls-2" points="822.699 1259.333 676.808 1259.333 530.917 1259.333 530.917 1405.224 676.808 1405.224 822.699 1405.224 968.59 1405.224 1114.48 1405.224 1114.48 1259.334 968.59 1259.333 822.699 1259.333"/>
        <rect class="cls-2" x="822.699" y="967.552" width="145.891" height="145.891"/>
      </g>
    </g>
  </g>
</svg>