<?xml version="1.0" encoding="UTF-8"?>
<svg id="Ebene_2" data-name="Ebene 2" xmlns="http://www.w3.org/2000/svg" viewBox="0 0 1167.128 1167.127">
  <defs>
    <style>
      .cls-1 {
        fill: #1c1c1c;
      }

      .cls-2 {
        fill: #a37b61;
      }
    </style>
  </defs>
  <g id="Ebene_1-2" data-name="Ebene 1">
    <g>
      <rect class="cls-2" x="145.891" y="145.891" width="875.345" height="875.345"/>
      <g>
        <polygon class="cls-1" points="583.564 145.891 729.455 145.891 875.345 145.891 875.345 0 729.455 0 583.564 0 437.673 0 291.782 0 291.782 145.891 437.673 145.891 583.564 145.891"/>
        <rect class="cls-1" x="145.891" y="145.891" width="145.891" height="145.891"/>
        <rect class="cls-1" x="729.455" y="291.782" width="145.891" height="145.891"/>
        <rect class="cls-1" x="437.673" y="437.673" width="145.891" height="145.891"/>
        <rect class="cls-1" x="875.345" y="145.891" width="145.891" height="145.891"/>
        <polygon class="cls-1" points="145.891 729.455 145.891 583.564 145.891 437.673 145.891 291.782 0 291.782 0 437.673 0 583.564 0 729.455 0 875.346 145.891 875.346 145.891 729.455"/>
        <polygon class="cls-1" points="1021.237 291.782 1021.237 437.672 1021.237 583.563 1021.237 729.454 1021.237 875.345 1167.127 875.345 1167.127 729.454 1167.127 583.563 1167.127 437.672 1167.128 291.782 1021.237 291.782"/>
        <rect class="cls-1" x="875.346" y="875.345" width="145.891" height="145.891"/>
        <rect class="cls-1" x="145.891" y="875.345" width="145.891" height="145.891"/>
        <polygon class="cls-1" points="583.564 1021.236 437.673 1021.236 291.782 1021.236 291.782 1167.127 437.673 1167.127 583.564 1167.127 729.455 1167.127 875.345 1167.127 875.345 1021.236 729.455 1021.236 583.564 1021.236"/>
        <rect class="cls-1" x="583.564" y="729.454" width="145.891" height="145.891"/>
      </g>
    </g>
  </g>
</svg>